<svg class="css-ze2te4 css-qd6ojx" viewBox="0 0 62.820512820512825 68.24944602722381">
    <g transform="translate(-7.3678349648596715, -4.653371320037987) scale(0.7755618866729979)" stroke="url(#SvgjsLinearGradient3369)" fill="url(#SvgjsLinearGradient3369)">
        <g xmlns="http://www.w3.org/2000/svg" transform="translate(0,-952.36218)">
            <path
                style="text-indent: 0; text-transform: none; direction: ltr; block-progression: tb; baseline-shift: baseline; color: ; enable-background: accumulate;"
                d="m 49.999998,958.36217 c -4.8686,0 -8.9618,3.56799 -9.7812,8.21875 -17.6485,4.38348 -30.7188,20.31043 -30.7188,39.28128 0,5.6817 1.1959,11.1243 3.3126,16.0312 -2.0184,1.8145 -3.3126,4.4323 -3.3126,7.3438 0,5.4418 4.4644,9.875 9.9063,9.875 1.9721,0 3.8278,-0.558 5.375,-1.5625 6.9177,5.5273 15.6884,8.8125 25.2187,8.8125 9.4984,0 18.249404,-3.2644 25.156304,-8.75 1.5492,0.9964 3.4068,1.5625 5.375,1.5625 5.4737,0 9.9375,-4.4638 9.9375,-9.9375 0,-2.9002 -1.2533,-5.5201 -3.25,-7.3438 2.1142,-4.9142 3.2812,-10.3463 3.2812,-16.0312 0,-18.97442 -13.0743,-34.90117 -30.718704,-39.28128 -0.8196,-4.64744 -4.9072,-8.21875 -9.7813,-8.21875 z m -9.625,12.3125 c 1.0737,4.31735 4.9889,7.53125 9.625,7.53125 4.643,0 8.5844,-3.21448 9.6563,-7.53125 15.476704,4.22788 26.843704,18.34642 26.843704,35.18753 0,4.9498 -0.9747,9.673 -2.75,13.9687 -1.0142,-0.3509 -2.0892,-0.5625 -3.2187,-0.5625 -5.4737,0 -9.9687,4.4951 -9.9687,9.9688 0,2.0545 0.6408,3.9723 1.7187,5.5625 -6.1591,4.7556 -13.882004,7.5625 -22.281304,7.5625 -8.4371,0 -16.2018,-2.8524 -22.375,-7.6563 1.0497,-1.57 1.6876,-3.4489 1.6876,-5.4687 0,-5.4419 -4.4645,-9.9063 -9.9063,-9.9063 -1.0883,0 -2.1436,0.1716 -3.125,0.5 -1.7865,-4.2984 -2.7813,-9.0111 -2.7813,-13.9687 0,-16.83831 11.3931,-30.95691 26.875,-35.18753 z"
                fill="{{COLOR}}"
                fill-opacity="1"
                fill-rule="evenodd"
                stroke="none"
                marker="none"
                visibility="visible"
                display="inline"
                overflow="visible"
            ></path>
        </g>
    </g>
</svg>
